<svg xmlns="http://www.w3.org/2000/svg" viewBox="0 0 64 64">
  <rect width="64" height="64" rx="18" fill="#0f766e"/>
  <path fill="#fff" d="M19.5 28.7c-3.2.4-5.9-2.4-6.3-5.8-.4-3.4 1.7-6.5 4.9-6.9 3.2-.4 5.9 2.4 6.3 5.8.4 3.4-1.7 6.5-4.9 6.9Zm25 0c-3.2-.4-5.3-3.5-4.9-6.9.4-3.4 3.1-6.2 6.3-5.8 3.2.4 5.3 3.5 4.9 6.9-.4 3.4-3.1 6.2-6.3 5.8ZM29.1 23c-3.4 0-6.1-3.3-6.1-7.3s2.7-7.3 6.1-7.3 6.1 3.3 6.1 7.3-2.7 7.3-6.1 7.3Zm9.6 21.3c-2.5 1.9-4.4 3.4-6.7 3.4s-4.2-1.5-6.7-3.4c-3.5-2.7-7.8-6-7-11 .6-3.8 3.7-6.2 6.5-7.7 2.6-1.4 4.2-2 7.2-2s4.6.6 7.2 2c2.8 1.5 5.9 3.9 6.5 7.7.8 5-3.5 8.3-7 11Z"/>
</svg>
